<svg width="100" height="100" xmlns="http://www.w3.org/2000/svg">
  <!-- Background Circle -->
  <circle cx="50" cy="50" r="48" fill="#f5f7fa" stroke="#1a73e8" stroke-width="2"/>
  
  <!-- Person -->
  <circle cx="50" cy="40" r="20" fill="#ffffff" stroke="#1a73e8" stroke-width="2"/>
  
  <!-- Hair -->
  <path d="M30 40 C 30 30, 40 20, 50 20 C 60 20, 70 30, 70 40" fill="#6d4c41" stroke="#6d4c41" stroke-width="1"/>
  <path d="M30 40 C 35 35, 40 30, 50 30 C 60 30, 65 35, 70 40" fill="#6d4c41" stroke="#6d4c41" stroke-width="1"/>
  
  <!-- Face Features -->
  <circle cx="42" cy="35" r="2" fill="#333"/>
  <circle cx="58" cy="35" r="2" fill="#333"/>
  <path d="M45 45 C 48 48, 52 48, 55 45" fill="none" stroke="#333" stroke-width="1"/>
  
  <!-- Body -->
  <path d="M50 60 L50 80" stroke="#1a73e8" stroke-width="4"/>
  <path d="M50 65 L40 75" stroke="#1a73e8" stroke-width="3"/>
  <path d="M50 65 L60 75" stroke="#1a73e8" stroke-width="3"/>
  
  <!-- Name -->
  <text x="50" y="95" font-family="Arial" font-size="10" font-weight="bold" text-anchor="middle" fill="#1a73e8">Sarah J.</text>
</svg>