<svg width="100" height="100" xmlns="http://www.w3.org/2000/svg">
  <!-- Background Circle -->
  <circle cx="50" cy="50" r="48" fill="#f5f7fa" stroke="#ea4335" stroke-width="2"/>
  
  <!-- Person -->
  <circle cx="50" cy="40" r="20" fill="#ffffff" stroke="#ea4335" stroke-width="2"/>
  
  <!-- Hair -->
  <path d="M30 30 C 35 20, 45 15, 55 15 C 65 15, 70 25, 70 35" fill="#5d4037" stroke="#5d4037" stroke-width="1"/>
  <path d="M30 30 C 35 25, 40 22, 50 20 C 60 20, 65 25, 70 35" fill="#5d4037" stroke="#5d4037" stroke-width="1"/>
  <path d="M70 35 C 65 45, 60 50, 65 55" fill="#5d4037" stroke="#5d4037" stroke-width="1"/>
  
  <!-- Face Features -->
  <circle cx="42" cy="35" r="2" fill="#333"/>
  <circle cx="58" cy="35" r="2" fill="#333"/>
  <path d="M42 45 C 45 48, 55 48, 58 45" fill="none" stroke="#333" stroke-width="1"/>
  
  <!-- Earrings -->
  <circle cx="30" cy="40" r="2" fill="#ffd700"/>
  <circle cx="70" cy="40" r="2" fill="#ffd700"/>
  
  <!-- Body -->
  <path d="M50 60 L50 80" stroke="#ea4335" stroke-width="4"/>
  <path d="M50 65 L40 75" stroke="#ea4335" stroke-width="3"/>
  <path d="M50 65 L60 75" stroke="#ea4335" stroke-width="3"/>
  
  <!-- Name -->
  <text x="50" y="95" font-family="Arial" font-size="10" font-weight="bold" text-anchor="middle" fill="#ea4335">Emily R.</text>
</svg>