<svg width="100" height="100" xmlns="http://www.w3.org/2000/svg">
  <!-- Background Circle -->
  <circle cx="50" cy="50" r="48" fill="#f5f7fa" stroke="#34a853" stroke-width="2"/>
  
  <!-- Person -->
  <circle cx="50" cy="40" r="20" fill="#ffffff" stroke="#34a853" stroke-width="2"/>
  
  <!-- Hair -->
  <path d="M30 35 C 30 25, 40 15, 50 15 C 60 15, 70 25, 70 35" fill="#000000" stroke="#000000" stroke-width="1"/>
  <rect x="30" y="20" width="40" height="20" fill="#000000"/>
  
  <!-- Face Features -->
  <circle cx="42" cy="35" r="2" fill="#333"/>
  <circle cx="58" cy="35" r="2" fill="#333"/>
  <path d="M42 45 C 45 47, 55 47, 58 45" fill="none" stroke="#333" stroke-width="1"/>
  
  <!-- Glasses -->
  <rect x="38" y="33" width="8" height="5" rx="2" ry="2" fill="none" stroke="#333" stroke-width="1"/>
  <rect x="54" y="33" width="8" height="5" rx="2" ry="2" fill="none" stroke="#333" stroke-width="1"/>
  <path d="M46 35 L54 35" stroke="#333" stroke-width="1"/>
  
  <!-- Body -->
  <path d="M50 60 L50 80" stroke="#34a853" stroke-width="4"/>
  <path d="M50 65 L40 75" stroke="#34a853" stroke-width="3"/>
  <path d="M50 65 L60 75" stroke="#34a853" stroke-width="3"/>
  
  <!-- Name -->
  <text x="50" y="95" font-family="Arial" font-size="10" font-weight="bold" text-anchor="middle" fill="#34a853">Michael C.</text>
</svg>